# xmcd
#
# Track frame offsets: 
#        188
#        17773
#        26415
#        36960
#        48255
#        54543
#        64803
#        77093
#        87195
#        98650
#        114030
#
# Disc length: 2295 seconds
#
# Revision: 5
# Processed by: cddbd v1.5.2PL0 Copyright (c) Steve Scherf et al.
# Submitted via: ExactAudioCopy v1.0b1
#
DISCID=7b08f50b
DTITLE=The Dillards - C-012 Mountain Rock
DYEAR=1978
DGENRE=Bluegrass
TTITLE0=Caney Creek
TTITLE1=Don't You Cry
TTITLE2=Reason To Believe
TTITLE3=Big Bayou
TTITLE4=Walkin' To Jerusalem
TTITLE5=I've Just Seen A Face
TTITLE6=High Sierra
TTITLE7=Never See My Home Again
TTITLE8=Somebody Touched Me
TTITLE9=Fields Have Turned Brown
TTITLE10=Orange Blossom Special
EXTD=more info\n
EXTT0=
EXTT1=
EXTT2=
EXTT3=
EXTT4=
EXTT5=
EXTT6=
EXTT7=
EXTT8=
EXTT9=
EXTT10=
PLAYORDER=
